<svg id="bold" height="512" viewBox="0 0 24 24" width="512" xmlns="http://www.w3.org/2000/svg"><path d="m17.5 11.988c-2.481 0-4.5-2.049-4.5-4.568 0-2.593 3.532-6.713 3.935-7.175.285-.326.845-.326 1.13 0 .403.461 3.935 4.582 3.935 7.174 0 2.519-2.019 4.569-4.5 4.569z"/><path d="m.492 12.002c-.273.005-.492.227-.492.5v9.248c0 .138.112.25.25.25h2.372c.224 0 .42-.148.481-.363l2.213-7.798c.143-.504-.127-1.034-.62-1.213-.906-.33-2.296-.656-4.204-.624z"/><path d="m22 17.5c-2 0-6 2.531-8 2.531s-4.25-1.531-4.25-1.531 2.694.5 4.25.5 2-.531 2-1.25c0-1.75-2.972-2.022-4.476-2.251-1.476-.822-2.243-1.472-4.688-1.679-.014.143-.036.285-.076.426l-2.009 7.08c2.275 1.035 6.193 2.674 8.249 2.674 3 0 11-4 11-5s-1-1.5-2-1.5z"/></svg>